<?xml version="1.0" encoding="UTF-8"?>
<svg width="210mm" height="297mm" version="1.1" viewBox="0 0 210 297" xml:space="preserve" xmlns="http://www.w3.org/2000/svg" xmlns:xlink="http://www.w3.org/1999/xlink"><rect x="60.705" y="27.115" width="0" height="34.399" ry="0" style="fill:#ffffff;stroke-width:.26458"/><rect x="17.198" y="169.33" width="134.94" height="58.208" ry="2.6458" style="fill:#3c3c3c;paint-order:normal;stroke-linejoin:round;stroke-width:15.419;stroke:#3c3c3c"/><g transform="matrix(16.389 0 0 17.387 -25.71 8.5045)" style="fill:#3c3c3c"><path d="m14 4.5v9.5a2 2 0 0 1-2 2h-8a2 2 0 0 1-2-2v-12a2 2 0 0 1 2-2h5.5zm-3 0a1.5 1.5 0 0 1-1.5-1.5v-2h-5.5a1 1 0 0 0-1 1v12a1 1 0 0 0 1 1h8a1 1 0 0 0 1-1v-9.5z" style="fill:#3c3c3c"/></g><text transform="matrix(20.179 0 0 23.001 -615.17 -4279.3)" x="31.75" y="195.79167" style="fill:none;font-size:3.175px;inline-size:13.2292;white-space:pre" xml:space="preserve"/><text transform="scale(.26458)" style="fill:#3c3c3c;font-family:Alef;shape-inside:url(#rect4658);stroke-width:0;white-space:pre" xml:space="preserve"/><g transform="translate(1.9844 1.4735)"><rect x="31.75" y="93.777" width="91.281" height="10.884" ry="2.6386" style="fill-rule:evenodd;fill:#3c3c3c;paint-order:normal;stroke-width:0"/><rect x="31.75" y="79.224" width="91.24" height="10.884" ry="2.6386" style="fill-rule:evenodd;fill:#3c3c3c;paint-order:normal;stroke-width:0"/><rect x="31.75" y="108.33" width="91.281" height="10.884" ry="2.6386" style="fill-rule:evenodd;fill:#3c3c3c;paint-order:normal;stroke-width:0"/><rect x="31.75" y="122.88" width="70.115" height="10.884" ry="2.6386" style="fill-rule:evenodd;fill:#3c3c3c;paint-order:normal;stroke-width:0"/></g><text transform="scale(.97376 1.0269)" x="22.103825" y="220.508" style="fill-rule:evenodd;fill:#ffffff;font-family:Tahoma;font-size:75.135px;paint-order:normal;stroke-dashoffset:7401.1;stroke-linecap:square;stroke-width:0" xml:space="preserve"><tspan x="22.103825" y="220.508" style="font-family:Tahoma;font-size:75.135px;stroke-width:0">DEB</tspan></text></svg>
